<svg width="19" height="18" viewBox="0 0 19 18" fill="none" xmlns="http://www.w3.org/2000/svg">
<path d="M9.5 0C7.71997 0 5.97991 0.527841 4.49987 1.51677C3.01983 2.50571 1.86628 3.91131 1.18509 5.55585C0.5039 7.20038 0.32567 9.00998 0.672936 10.7558C1.0202 12.5016 1.87737 14.1053 3.13604 15.364C4.39471 16.6226 5.99836 17.4798 7.74419 17.8271C9.49002 18.1743 11.2996 17.9961 12.9442 17.3149C14.5887 16.6337 15.9943 15.4802 16.9832 14.0001C17.9722 12.5201 18.5 10.78 18.5 9C18.4954 6.61446 17.5457 4.32793 15.8589 2.64109C14.1721 0.954255 11.8855 0.0045744 9.5 0ZM13.6019 9.26827C13.5642 9.35215 13.5114 9.42841 13.4462 9.49327L10.5125 12.4269C10.4497 12.4915 10.3742 12.5425 10.2909 12.5768C10.2075 12.611 10.118 12.6278 10.0279 12.626C9.93647 12.6279 9.84561 12.6113 9.76082 12.5771C9.67603 12.5429 9.59907 12.4918 9.53462 12.4269C9.40515 12.2971 9.33244 12.1213 9.33244 11.938C9.33244 11.7547 9.40515 11.5788 9.53462 11.449L11.2913 9.69231H6.03846C5.85485 9.69231 5.67876 9.61937 5.54893 9.48953C5.4191 9.3597 5.34616 9.18361 5.34616 9C5.34616 8.81639 5.4191 8.6403 5.54893 8.51046C5.67876 8.38063 5.85485 8.30769 6.03846 8.30769H11.2913L9.53462 6.55096C9.41529 6.41927 9.35118 6.24673 9.35555 6.06907C9.35993 5.89141 9.43245 5.72224 9.55812 5.59657C9.68378 5.47091 9.85295 5.39839 10.0306 5.39401C10.2083 5.38964 10.3808 5.45375 10.5125 5.57308L13.4462 8.50673C13.5114 8.57158 13.5642 8.64784 13.6019 8.73173C13.6712 8.90386 13.6712 9.09614 13.6019 9.26827Z" fill="#024059"/>
</svg>
