<svg width="76" height="58" viewBox="0 0 76 58" fill="none" xmlns="http://www.w3.org/2000/svg">
<path fill-rule="evenodd" clip-rule="evenodd" d="M68.878 46.8047C70.1582 45.4955 71.2661 44.1563 72.2016 42.7865C73.7426 40.5293 75.0088 37.8872 76 34.8596C76 34.3635 75.8629 33.9783 75.5874 33.7033C75.3118 33.4282 74.9812 33.2902 74.5967 33.2902C74.1559 33.2902 73.7426 33.5653 73.3582 34.116C72.9724 35.1072 72.4355 36.263 71.7473 37.5846C71.0591 38.9056 70.2748 40.1854 69.3938 41.4241C68.5185 42.6548 67.5491 43.7223 66.4841 44.6264L66.4623 44.6447C64.542 46.2704 62.8546 47.1068 62.2925 44.1083C62.127 43.227 62.0446 42.2914 62.0446 41.3002C62.0446 39.9792 62.1127 38.6301 62.2511 37.254C62.3883 35.8776 62.4574 34.7212 62.4574 33.7861C62.2925 33.07 62.0028 32.5474 61.5906 32.2167C61.1776 31.8861 60.7231 31.7214 60.2278 31.7214C59.3465 31.8313 58.5761 32.3266 57.9155 33.2079L53.7866 39.9792C53.8965 38.4927 54.1991 36.937 54.6947 35.3136C55.1901 33.6895 55.4378 32.0791 55.4378 30.4827C55.4378 29.9871 55.3965 29.4775 55.3139 28.9549C55.2311 28.432 55.0802 27.95 54.8599 27.5097C54.6399 27.0692 54.3373 26.6975 53.9513 26.3948C53.5664 26.092 53.043 25.9403 52.3827 25.9403C51.6123 25.9403 50.9238 26.2021 50.3181 26.725C49.7128 27.2481 49.1487 27.8811 48.6253 28.6242C48.1026 29.3676 47.6341 30.111 47.2211 30.8546L46.1891 32.7121C45.5839 33.6479 45.033 34.6388 44.5372 35.6851C44.0421 36.7308 43.4919 37.7768 42.8862 38.8233C43.2712 37.3913 43.6291 35.9877 43.9597 34.6113C44.2897 33.2347 44.4551 31.996 44.4551 30.8957C44.4551 30.2902 44.359 29.6707 44.1663 29.0372C43.7405 27.6388 42.1957 26.302 40.8766 25.7944C39.4452 25.2437 37.821 24.9686 36.0041 24.9686C34.1879 24.9686 32.2331 25.1887 30.1417 25.6292C28.0492 26.0695 26.0263 26.5785 24.072 27.1568C22.1174 27.7347 20.2867 28.3406 18.5802 28.9736C16.8737 29.6066 15.4698 30.0882 14.369 30.4189C13.6529 30.7492 13.295 31.2171 13.295 31.8228C13.295 32.1531 13.4188 32.442 13.6667 32.6898C13.9142 32.9374 14.2589 33.0615 14.6989 33.0615C14.7542 33.0615 14.8093 33.0472 14.8641 33.0202C14.9196 32.9924 14.9745 32.9791 15.0295 32.9791C16.5711 32.8137 18.14 32.6898 19.7361 32.6072C21.3327 32.5243 22.8746 32.2906 24.3611 31.9056C24.2719 32.6988 23.1249 36.5977 22.5029 38.0987C21.7047 40.0252 20.6859 41.8286 19.4472 43.5076C18.2085 45.1868 16.7498 46.6731 15.0706 47.9666C13.131 49.4611 9.68022 52.0932 7.34946 50.1134C7.19376 49.9813 7.04683 49.8406 6.90919 49.6904C6.55876 49.3102 6.26543 48.8735 6.02841 48.3796C5.69774 47.6915 5.47773 46.9344 5.36785 46.1084C5.25747 45.2829 5.20265 44.4294 5.20265 43.5489C5.20265 42.0624 5.36785 40.2592 5.69774 38.14C6.02841 36.0205 6.52372 33.7493 7.18427 31.3275C7.84451 28.9048 8.67051 26.4139 9.6617 23.8533C10.5805 21.4798 11.63 19.2006 12.8087 17.0163C12.9012 16.8448 12.9943 16.6738 13.0885 16.5042C14.3827 14.1644 15.8277 12.0173 17.4238 10.0635C19.0207 8.10896 20.7548 6.4988 22.627 5.23259C23.5078 4.62637 24.3611 4.32375 25.1868 4.32375C26.0125 4.32375 26.6868 4.61311 27.2102 5.19075C27.7328 5.76923 28.1595 6.51232 28.4899 7.42065C28.8201 8.32899 29.0541 9.36093 29.1918 10.5176C29.3289 11.6732 29.3983 12.8016 29.3983 13.9031C29.3983 15.8296 29.2328 17.399 28.903 18.6099C28.5723 19.8213 28.4071 20.5645 28.4071 20.8395C28.4071 21.6655 28.8474 22.0783 29.7289 22.0783C30.224 22.0783 30.6508 21.8307 31.0087 21.3348C31.3661 20.8395 31.6829 20.179 31.958 19.3533C32.2331 18.5273 32.4396 17.6054 32.5773 16.587C32.7152 15.5683 32.7838 14.5088 32.7838 13.4077C32.7838 9.71912 32.1781 6.71883 30.9669 4.40659C29.7557 2.09461 27.8289 0.938232 25.1868 0.938232C23.3146 0.938232 21.5255 1.39227 19.8189 2.30113C18.1124 3.20914 16.7085 4.37878 15.607 5.81024C12.8907 9.17896 10.5094 12.6551 8.46252 16.2386C8.43574 16.2859 8.4087 16.3332 8.38166 16.3805C6.3172 20.0135 4.5694 23.8951 3.13796 28.0235C2.31224 30.501 1.58263 33.1438 0.949877 35.9519C0.316872 38.7592 0 41.4567 0 44.0439C0 45.4754 0.165198 46.9069 0.495336 48.3383C0.82573 49.7698 1.33483 51.0635 2.02365 52.2194C2.24866 52.5981 2.49795 52.953 2.77028 53.2847C3.33044 53.965 3.98997 54.5461 4.74862 55.0272C5.87695 55.7426 7.23957 56.1007 8.8357 56.1007C10.2123 56.1007 11.5471 55.7981 12.8409 55.1924C14.135 54.5864 15.3594 53.8023 16.5158 52.8386C17.6714 51.8755 18.7319 50.802 19.6948 49.6183C20.6585 48.4344 21.5255 47.265 22.2964 46.1084C22.2411 46.3842 22.1449 46.8931 22.0075 47.6367C21.8696 48.3796 21.7182 49.2329 21.5535 50.1965C21.3883 51.1596 21.2506 52.1643 21.1408 53.2103C21.0302 54.2563 20.9753 55.22 20.9753 56.1007C20.9753 57.3667 21.3883 58 22.214 58C22.7094 58 23.1771 57.78 23.6174 57.3395C24.0029 54.862 24.4159 52.6739 24.8562 50.7742C25.2967 48.8747 25.7232 47.0448 26.1362 45.2829C26.5489 43.5213 26.9619 41.6907 27.3749 39.7914C27.7877 37.8922 28.1868 35.7309 28.5723 33.309L28.9853 30.9147C30.4718 30.5841 32.0679 30.281 33.775 30.0059C35.4815 29.7308 36.8849 29.5929 37.9864 29.5929C38.867 29.5929 39.5968 29.7994 40.1745 30.2124C40.8869 30.7217 41.1935 31.1605 40.9042 31.9692C40.7355 32.4403 40.5845 32.9497 40.4245 33.4894L40.4244 33.4896C40.2386 34.1162 40.0408 34.7836 39.7893 35.4789C39.3217 36.7724 38.8808 38.121 38.4677 39.5249C38.0555 40.929 37.6976 42.3187 37.3945 43.6951C37.0919 45.0712 36.9402 46.3374 36.9402 47.4938C36.9402 48.6496 37.1748 49.5035 37.6425 50.0536C38.1103 50.6037 38.6743 50.8796 39.3353 50.8796C40.1613 50.8796 41.0145 50.4115 41.8953 49.4754C42.7759 48.5398 43.6291 47.4107 44.4551 46.0899C45.2808 44.7688 46.0518 43.4058 46.7671 42.0023C47.4831 40.5987 48.0884 39.4282 48.584 38.4927C48.5292 39.0428 48.4741 39.5937 48.4188 40.1444C48.364 40.6945 48.3364 41.2454 48.3364 41.796C48.3364 42.3462 48.364 42.9654 48.4188 43.654C48.4741 44.3421 48.5977 44.9889 48.7905 45.5946C48.9832 46.2 49.3001 46.7091 49.7398 47.1221C50.1806 47.5349 50.7863 47.7414 51.5568 47.7414C53.0986 47.7414 54.3505 47.205 55.3139 46.131C56.2778 45.0574 57.1446 43.888 57.9155 42.6218C57.9706 43.3371 58.0947 44.1494 58.2875 45.0574C58.4795 45.9662 58.7687 46.8052 59.1542 47.5761C59.5392 48.3471 60.0763 49.0076 60.7646 49.5582C61.4522 50.1084 62.3192 50.3842 63.3657 50.3842C63.9704 50.3842 64.508 50.2736 64.9764 50.0536C65.4442 49.8333 65.8434 49.5858 66.1733 49.3107C67.1473 48.488 68.0488 47.6525 68.878 46.8047ZM30.6841 55.0635H31.086C31.4314 55.0635 31.7025 54.9581 31.9005 54.7458C32.0977 54.5348 32.1963 54.2505 32.1963 53.8936C32.1963 53.5379 32.0977 53.2546 31.9005 53.0436C31.7025 52.8313 31.4314 52.7259 31.086 52.7259H30.6841V55.0635ZM31.086 52.0399C31.6782 52.0399 32.1645 52.2096 32.5448 52.554C32.9259 52.8966 33.1166 53.3439 33.1166 53.8926C33.1166 54.4395 32.9259 54.887 32.5448 55.2322C32.1645 55.5776 31.6782 55.7495 31.086 55.7495H29.7797V52.0399H31.086ZM38.3559 52.7157V52.0284H36.1087V55.7495H38.3559V55.0635H37.0135V54.2022H38.1974V53.5139H37.0135V52.7157H38.3559ZM42.8136 52.6996C42.7005 52.6996 42.6079 52.7291 42.5356 52.789C42.4639 52.8498 42.4272 52.9346 42.4272 53.048C42.4272 53.1607 42.461 53.2513 42.5278 53.3213C42.5946 53.3899 42.6815 53.4415 42.7898 53.4798C42.897 53.5161 43.0163 53.5506 43.1493 53.5849C43.2812 53.6179 43.4126 53.6595 43.543 53.7065C43.6731 53.7539 43.7926 53.8132 43.8999 53.883C44.0075 53.9543 44.0949 54.0542 44.1617 54.1839C44.229 54.311 44.2624 54.4649 44.2624 54.6449C44.2624 54.959 44.1337 55.2276 43.8784 55.4514C43.6233 55.6751 43.2867 55.7873 42.8687 55.7873C42.4509 55.7873 42.1148 55.6876 41.859 55.4869C41.6037 55.2849 41.4758 55.0003 41.4758 54.6299H42.4379C42.4627 54.925 42.6139 55.0729 42.8925 55.0729C43.0226 55.0729 43.1255 55.0394 43.1991 54.9708C43.2734 54.9005 43.3107 54.8146 43.3107 54.709C43.3107 54.6024 43.2772 54.5175 43.2098 54.4499C43.1428 54.3833 43.0559 54.3295 42.9485 54.2915C42.8409 54.2524 42.7205 54.2159 42.5889 54.1839C42.4562 54.1503 42.325 54.108 42.1941 54.0587C42.0642 54.0107 41.9454 53.9498 41.8375 53.881C41.7298 53.8132 41.6427 53.7148 41.5762 53.5849C41.5096 53.4565 41.4758 53.3041 41.4758 53.1274C41.4758 52.7822 41.604 52.5054 41.8618 52.2979C42.1191 52.0894 42.4475 51.986 42.8474 51.986C43.2477 51.986 43.571 52.0756 43.8181 52.2576C44.0644 52.439 44.1935 52.7259 44.2043 53.1158H43.2206C43.2063 52.9827 43.1633 52.8806 43.0912 52.8072C43.0191 52.7349 42.9257 52.6996 42.8136 52.6996ZM48.3017 55.7495H47.3976V52.0399H48.3017V55.7495ZM51.8521 55.2459C51.4839 54.8869 51.3002 54.4339 51.3002 53.883C51.3002 53.3349 51.4839 52.8806 51.8521 52.5227C52.2208 52.1637 52.6711 51.986 53.2029 51.986C53.6164 51.986 53.9824 52.0959 54.303 52.3132C54.6242 52.5322 54.8476 52.8348 54.9743 53.2225H53.8962C53.7548 52.9519 53.5291 52.8163 53.2197 52.8163C52.9086 52.8163 52.6648 52.9129 52.4868 53.1066C52.3089 53.3003 52.2193 53.5599 52.2193 53.883C52.2193 54.2066 52.3089 54.4672 52.4868 54.6622C52.6648 54.8562 52.9038 54.9513 53.2029 54.9513C53.4182 54.9513 53.5932 54.8982 53.7291 54.7906C53.8647 54.684 53.9553 54.5405 54.0019 54.3591H52.9552V53.6735H54.9743V54.3591C54.9075 54.6977 54.7228 55.0143 54.4192 55.3057C54.2752 55.4469 54.0962 55.5625 53.8832 55.6486C53.6695 55.7367 53.4427 55.7828 53.2029 55.7828C52.6711 55.7828 52.2208 55.6025 51.8521 55.2459ZM61.299 52.0284H60.3942V54.3709L58.8819 52.0284H57.9783V55.7495H58.8819V53.4072L60.3942 55.7495H61.299V52.0284Z" fill="#024059"/>
</svg>
